<svg 
width={"12"}
height={"8"}
viewBox="0 0 12 8" 
id="_x32_"
fill={"none"}
xmlns="http://www.w3.org/2000/svg">
<path d="M0.431969 0.631394C0.596056 0.467357 0.818576 0.375206 1.05059 0.375206C1.28261 0.375206 1.50513 0.467357 1.66922 0.631394L6.00047 4.96264L10.3317 0.631394C10.4967 0.472006 10.7178 0.383811 10.9472 0.385804C11.1766 0.387798 11.3961 0.479821 11.5583 0.642053C11.7205 0.804285 11.8126 1.02375 11.8146 1.25317C11.8166 1.48259 11.7284 1.70362 11.569 1.86864L6.61909 6.81852C6.45501 6.98256 6.23249 7.07471 6.00047 7.07471C5.76845 7.07471 5.54593 6.98256 5.38184 6.81852L0.431969 1.86864C0.267932 1.70456 0.175781 1.48204 0.175781 1.25002C0.175781 1.018 0.267932 0.795481 0.431969 0.631394Z" fill="#999999"/>
</svg>