<svg width="38" height="43" viewBox="0 0 38 43" fill="none" xmlns="http://www.w3.org/2000/svg">
<path d="M31.046 38.1299C28.2679 40.3994 24.902 41.8328 21.3406 42.2629C17.7792 42.6931 14.1688 42.1023 10.9302 40.5595C7.69163 39.0166 4.95814 36.5853 3.04824 33.5486C1.13835 30.512 0.130695 26.9952 0.142684 23.4079L9.64582 23.4396C9.63985 25.2259 10.1416 26.977 11.0926 28.4891C12.0436 30.0012 13.4047 31.2118 15.0174 31.9801C16.63 32.7483 18.4277 33.0425 20.2011 32.8283C21.9745 32.6141 23.6505 31.9004 25.0338 30.7703L31.046 38.1299Z" fill="#FF6060"/>
<path d="M7.09655 4.26957C9.87469 2.00005 13.2406 0.566717 16.802 0.136576C20.3634 -0.293569 23.9738 0.297194 27.2124 1.84003C30.451 3.38287 33.1844 5.81424 35.0943 8.85087C37.0042 11.8875 38.0119 15.4043 37.9999 18.9916L28.4968 18.9599C28.5027 17.1736 28.001 15.4224 27.05 13.9104C26.099 12.3983 24.7378 11.1877 23.1252 10.4194C21.5126 9.65118 19.7149 9.35701 17.9415 9.5712C16.1681 9.78538 14.4921 10.4991 13.1088 11.6292L7.09655 4.26957Z" fill="#FF6060"/>
<path d="M0.142578 18.1712H36.9993C37.5516 18.1712 37.9993 18.619 37.9993 19.1712V24.2283H1.14258C0.590295 24.2283 0.142578 23.7806 0.142578 23.2283V18.1712Z" fill="#FF6060"/>
</svg>
